<svg xmlns="http://www.w3.org/2000/svg" xmlns:xlink="http://www.w3.org/1999/xlink" width="500" zoomAndPan="magnify" viewBox="0 0 375 374.999991" height="500" preserveAspectRatio="xMidYMid meet" version="1.0"><defs><g/><clipPath id="5f76104b07"><path d="M 79 161.019531 L 137.996094 161.019531 L 137.996094 241 L 79 241 Z M 79 161.019531 " clip-rule="nonzero"/></clipPath><clipPath id="fb58fc4e34"><path d="M 54.746094 161.019531 L 93 161.019531 L 93 181 L 54.746094 181 Z M 54.746094 161.019531 " clip-rule="nonzero"/></clipPath><clipPath id="0c60c4e27d"><path d="M 54.746094 161.019531 L 93 161.019531 L 93 181 L 54.746094 181 Z M 54.746094 161.019531 " clip-rule="nonzero"/></clipPath></defs><g clip-path="url(#5f76104b07)"><path fill="#e8e5de" d="M 116.480469 217.226562 L 132.292969 240.929688 L 108.035156 240.929688 L 92.808594 218.097656 L 79.496094 198.121094 C 79.496094 198.121094 109.449219 198.121094 109.460938 198.121094 C 114.117188 198.121094 118.023438 194.210938 118.023438 189.558594 C 118.023438 184.835938 114.183594 180.996094 109.460938 180.996094 L 102.253906 180.996094 L 88.941406 161.019531 L 109.460938 161.019531 C 125.230469 161.019531 138 173.789062 138 189.558594 C 138 197.433594 134.804688 204.570312 129.636719 209.734375 C 126.089844 213.285156 121.34375 215.988281 116.480469 217.226562 " fill-opacity="1" fill-rule="evenodd"/></g><g clip-path="url(#fb58fc4e34)"><path fill="#e2e2b6" d="M 92.335938 180.996094 L 68.074219 180.996094 L 54.753906 161.019531 L 79.015625 161.019531 Z M 92.335938 180.996094 " fill-opacity="1" fill-rule="evenodd"/></g><path fill="#e8e5de" d="M 109.136719 208.742188 L 99.902344 208.742188 L 106.117188 218.085938 L 121.347656 240.929688 L 108.027344 240.929688 L 98.4375 226.523438 L 79.503906 198.109375 C 79.503906 198.109375 109.449219 198.109375 109.46875 198.109375 C 114.109375 198.109375 118.015625 194.203125 118.015625 189.5625 C 118.015625 184.835938 114.175781 180.996094 109.46875 180.996094 L 102.261719 180.996094 L 95.601562 171.007812 L 109.136719 171.007812 C 119.570312 171.007812 128.003906 179.464844 128.003906 189.875 C 128.003906 200.285156 119.570312 208.742188 109.136719 208.742188 " fill-opacity="1" fill-rule="evenodd"/><g clip-path="url(#0c60c4e27d)"><path fill="#00b7ff" d="M 54.753906 161.019531 L 68.074219 180.996094 L 92.335938 180.996094 L 85.675781 171.007812 L 75.566406 171.007812 C 67.796875 171.007812 60.410156 167.613281 55.351562 161.714844 Z M 54.753906 161.019531 " fill-opacity="1" fill-rule="evenodd"/></g><g fill="#e8e5de" fill-opacity="1"><g transform="translate(144.142541, 215.417436)"><g><path d="M 17.140625 0 L 17.140625 -39.546875 L 0.921875 -39.546875 L 0.921875 -50.796875 L 47.09375 -50.796875 L 47.09375 -39.546875 L 30.875 -39.546875 L 30.875 0 Z M 17.140625 0 "/></g></g></g><g fill="#e8e5de" fill-opacity="1"><g transform="translate(198.996776, 215.417436)"><g><path d="M 30.59375 1.0625 C 25 1.0625 20.066406 -0.015625 15.796875 -2.171875 C 11.523438 -4.328125 8.203125 -7.382812 5.828125 -11.34375 C 3.460938 -15.300781 2.28125 -19.984375 2.28125 -25.390625 C 2.28125 -30.796875 3.460938 -35.476562 5.828125 -39.4375 C 8.203125 -43.40625 11.523438 -46.46875 15.796875 -48.625 C 20.066406 -50.78125 25 -51.859375 30.59375 -51.859375 C 36.238281 -51.859375 41.179688 -50.78125 45.421875 -48.625 C 49.671875 -46.46875 52.988281 -43.40625 55.375 -39.4375 C 57.769531 -35.476562 58.96875 -30.796875 58.96875 -25.390625 C 58.96875 -19.984375 57.769531 -15.300781 55.375 -11.34375 C 52.988281 -7.382812 49.671875 -4.328125 45.421875 -2.171875 C 41.179688 -0.015625 36.238281 1.0625 30.59375 1.0625 Z M 30.59375 -10.171875 C 33.488281 -10.171875 36.023438 -10.8125 38.203125 -12.09375 C 40.378906 -13.375 42.082031 -15.148438 43.3125 -17.421875 C 44.550781 -19.703125 45.171875 -22.359375 45.171875 -25.390625 C 45.171875 -28.429688 44.550781 -31.085938 43.3125 -33.359375 C 42.082031 -35.640625 40.378906 -37.421875 38.203125 -38.703125 C 36.023438 -39.984375 33.488281 -40.625 30.59375 -40.625 C 27.75 -40.625 25.222656 -39.984375 23.015625 -38.703125 C 20.804688 -37.421875 19.082031 -35.640625 17.84375 -33.359375 C 16.613281 -31.085938 16 -28.429688 16 -25.390625 C 16 -22.359375 16.613281 -19.703125 17.84375 -17.421875 C 19.082031 -15.148438 20.804688 -13.375 23.015625 -12.09375 C 25.222656 -10.8125 27.75 -10.171875 30.59375 -10.171875 Z M 30.59375 -10.171875 "/></g></g></g><g fill="#e8e5de" fill-opacity="1"><g transform="translate(267.08434, 215.417436)"><g><path d="M 3.984375 0 L 3.984375 -50.796875 L 24.40625 -50.796875 C 30.09375 -50.796875 35.070312 -49.75 39.34375 -47.65625 C 43.613281 -45.570312 46.941406 -42.632812 49.328125 -38.84375 C 51.722656 -35.050781 52.921875 -30.566406 52.921875 -25.390625 C 52.921875 -20.273438 51.734375 -15.804688 49.359375 -11.984375 C 46.992188 -8.171875 43.675781 -5.21875 39.40625 -3.125 C 35.144531 -1.039062 30.144531 0 24.40625 0 Z M 17.28125 -10.25 L 24.40625 -10.25 C 27.34375 -10.25 29.925781 -10.863281 32.15625 -12.09375 C 34.382812 -13.320312 36.113281 -15.070312 37.34375 -17.34375 C 38.582031 -19.625 39.203125 -22.304688 39.203125 -25.390625 C 39.203125 -28.523438 38.582031 -31.21875 37.34375 -33.46875 C 36.113281 -35.71875 34.382812 -37.457031 32.15625 -38.6875 C 29.925781 -39.925781 27.34375 -40.546875 24.40625 -40.546875 L 17.28125 -40.546875 Z M 17.28125 -10.25 "/></g></g></g><g fill="#e2e2b6" fill-opacity="1"><g transform="translate(146.708988, 240.809485)"><g><path d="M 5.109375 -9.125 L 5.109375 0 L 3.703125 0 L 3.703125 -9.125 L 0.203125 -9.125 L 0.203125 -10.359375 L 8.625 -10.359375 L 8.625 -9.125 Z M 5.109375 -9.125 "/></g></g></g><g fill="#e2e2b6" fill-opacity="1"><g transform="translate(159.185324, 240.809485)"><g><path d="M 2.640625 -9.125 L 2.640625 -5.953125 L 8.3125 -5.953125 L 8.3125 -4.703125 L 2.640625 -4.703125 L 2.640625 -1.234375 L 8.890625 -1.234375 L 8.890625 0 L 1.234375 0 L 1.234375 -10.359375 L 8.796875 -10.359375 L 8.796875 -9.125 Z M 2.640625 -9.125 "/></g></g></g><g fill="#e2e2b6" fill-opacity="1"><g transform="translate(172.470152, 240.809485)"><g><path d="M 5.46875 -9.40625 C 4.800781 -9.40625 4.210938 -9.238281 3.703125 -8.90625 C 3.191406 -8.570312 2.789062 -8.09375 2.5 -7.46875 C 2.21875 -6.851562 2.078125 -6.125 2.078125 -5.28125 C 2.078125 -3.851562 2.367188 -2.773438 2.953125 -2.046875 C 3.535156 -1.328125 4.382812 -0.96875 5.5 -0.96875 C 6.25 -0.96875 6.894531 -1.21875 7.4375 -1.71875 C 7.976562 -2.226562 8.320312 -2.925781 8.46875 -3.8125 L 9.828125 -3.8125 C 9.710938 -2.96875 9.445312 -2.234375 9.03125 -1.609375 C 8.625 -0.992188 8.097656 -0.523438 7.453125 -0.203125 C 6.816406 0.117188 6.109375 0.28125 5.328125 0.28125 C 4.390625 0.28125 3.566406 0.0625 2.859375 -0.375 C 2.148438 -0.8125 1.601562 -1.441406 1.21875 -2.265625 C 0.832031 -3.097656 0.640625 -4.082031 0.640625 -5.21875 C 0.640625 -6.300781 0.832031 -7.25 1.21875 -8.0625 C 1.613281 -8.882812 2.175781 -9.519531 2.90625 -9.96875 C 3.644531 -10.414062 4.5 -10.640625 5.46875 -10.640625 C 6.226562 -10.640625 6.914062 -10.5 7.53125 -10.21875 C 8.144531 -9.9375 8.640625 -9.539062 9.015625 -9.03125 C 9.398438 -8.519531 9.640625 -7.925781 9.734375 -7.25 L 8.375 -7.25 C 8.226562 -7.9375 7.90625 -8.46875 7.40625 -8.84375 C 6.90625 -9.21875 6.257812 -9.40625 5.46875 -9.40625 Z M 5.46875 -9.40625 "/></g></g></g><g fill="#e2e2b6" fill-opacity="1"><g transform="translate(186.549039, 240.809485)"><g><path d="M 7.921875 -6.078125 L 7.921875 -10.359375 L 9.328125 -10.359375 L 9.328125 0 L 7.921875 0 L 7.921875 -4.84375 L 2.515625 -4.84375 L 2.515625 0 L 1.109375 0 L 1.109375 -10.359375 L 2.515625 -10.359375 L 2.515625 -6.078125 Z M 7.921875 -6.078125 "/></g></g></g><g fill="#e2e2b6" fill-opacity="1"><g transform="translate(200.627926, 240.809485)"><g/></g></g><g fill="#e2e2b6" fill-opacity="1"><g transform="translate(208.296589, 240.809485)"><g><path d="M 8.65625 -7.328125 L 7.34375 -7.328125 C 7.320312 -7.992188 7.082031 -8.507812 6.625 -8.875 C 6.164062 -9.25 5.550781 -9.4375 4.78125 -9.4375 C 4.03125 -9.4375 3.445312 -9.28125 3.03125 -8.96875 C 2.613281 -8.65625 2.40625 -8.207031 2.40625 -7.625 C 2.40625 -6.925781 2.816406 -6.488281 3.640625 -6.3125 L 6.546875 -5.640625 C 8.148438 -5.273438 8.953125 -4.335938 8.953125 -2.828125 C 8.953125 -1.804688 8.570312 -1.03125 7.8125 -0.5 C 7.050781 0.0195312 6.070312 0.28125 4.875 0.28125 C 3.53125 0.28125 2.5 -0.0234375 1.78125 -0.640625 C 1.0625 -1.253906 0.703125 -2.15625 0.703125 -3.34375 L 2.015625 -3.34375 L 2.015625 -3.328125 C 2.015625 -2.566406 2.269531 -1.972656 2.78125 -1.546875 C 3.300781 -1.128906 4 -0.921875 4.875 -0.921875 C 5.644531 -0.921875 6.289062 -1.054688 6.8125 -1.328125 C 7.332031 -1.609375 7.59375 -2.0625 7.59375 -2.6875 C 7.59375 -3.09375 7.503906 -3.40625 7.328125 -3.625 C 7.148438 -3.851562 6.882812 -4.03125 6.53125 -4.15625 C 6.1875 -4.289062 5.660156 -4.441406 4.953125 -4.609375 L 3.203125 -5.015625 C 2.472656 -5.171875 1.929688 -5.460938 1.578125 -5.890625 C 1.222656 -6.328125 1.046875 -6.84375 1.046875 -7.4375 C 1.046875 -8.070312 1.1875 -8.628906 1.46875 -9.109375 C 1.757812 -9.585938 2.171875 -9.960938 2.703125 -10.234375 C 3.242188 -10.503906 3.882812 -10.640625 4.625 -10.640625 C 7.226562 -10.640625 8.570312 -9.535156 8.65625 -7.328125 Z M 8.65625 -7.328125 "/></g></g></g><g fill="#e2e2b6" fill-opacity="1"><g transform="translate(221.581416, 240.809485)"><g><path d="M 5.625 0.28125 C 4.550781 0.28125 3.628906 0.0351562 2.859375 -0.453125 C 2.097656 -0.953125 1.523438 -1.613281 1.140625 -2.4375 C 0.753906 -3.269531 0.5625 -4.1875 0.5625 -5.1875 C 0.5625 -6.1875 0.753906 -7.097656 1.140625 -7.921875 C 1.523438 -8.753906 2.097656 -9.414062 2.859375 -9.90625 C 3.628906 -10.394531 4.546875 -10.640625 5.609375 -10.640625 C 6.710938 -10.640625 7.644531 -10.382812 8.40625 -9.875 C 9.164062 -9.363281 9.734375 -8.691406 10.109375 -7.859375 C 10.484375 -7.023438 10.671875 -6.132812 10.671875 -5.1875 C 10.671875 -4.195312 10.472656 -3.285156 10.078125 -2.453125 C 9.691406 -1.617188 9.117188 -0.953125 8.359375 -0.453125 C 7.597656 0.0351562 6.6875 0.28125 5.625 0.28125 Z M 9.21875 -5.1875 C 9.21875 -6.007812 9.066406 -6.738281 8.765625 -7.375 C 8.460938 -8.019531 8.035156 -8.519531 7.484375 -8.875 C 6.941406 -9.226562 6.316406 -9.40625 5.609375 -9.40625 C 4.898438 -9.40625 4.273438 -9.222656 3.734375 -8.859375 C 3.191406 -8.503906 2.765625 -8.007812 2.453125 -7.375 C 2.148438 -6.738281 2 -6.007812 2 -5.1875 C 2 -4.351562 2.148438 -3.613281 2.453125 -2.96875 C 2.753906 -2.332031 3.175781 -1.835938 3.71875 -1.484375 C 4.269531 -1.140625 4.898438 -0.96875 5.609375 -0.96875 C 6.328125 -0.96875 6.957031 -1.144531 7.5 -1.5 C 8.050781 -1.851562 8.472656 -2.347656 8.765625 -2.984375 C 9.066406 -3.617188 9.21875 -4.351562 9.21875 -5.1875 Z M 9.21875 -5.1875 "/></g></g></g><g fill="#e2e2b6" fill-opacity="1"><g transform="translate(236.468805, 240.809485)"><g><path d="M 7.75 -1.234375 L 7.75 0 L 1.09375 0 L 1.09375 -10.359375 L 2.5 -10.359375 L 2.5 -1.234375 Z M 7.75 -1.234375 "/></g></g></g><g fill="#e2e2b6" fill-opacity="1"><g transform="translate(248.151082, 240.809485)"><g><path d="M 5.171875 -0.96875 C 6.023438 -0.96875 6.691406 -1.210938 7.171875 -1.703125 C 7.648438 -2.191406 7.890625 -2.875 7.890625 -3.75 L 7.890625 -10.359375 L 9.296875 -10.359375 L 9.296875 -3.671875 C 9.296875 -2.898438 9.132812 -2.21875 8.8125 -1.625 C 8.5 -1.03125 8.03125 -0.5625 7.40625 -0.21875 C 6.78125 0.113281 6.019531 0.28125 5.125 0.28125 C 4.289062 0.28125 3.570312 0.125 2.96875 -0.1875 C 2.375 -0.507812 1.921875 -0.953125 1.609375 -1.515625 C 1.296875 -2.085938 1.140625 -2.738281 1.140625 -3.46875 L 1.140625 -10.359375 L 2.546875 -10.359375 L 2.546875 -3.78125 C 2.546875 -2.894531 2.769531 -2.203125 3.21875 -1.703125 C 3.664062 -1.210938 4.316406 -0.96875 5.171875 -0.96875 Z M 5.171875 -0.96875 "/></g></g></g><g fill="#e2e2b6" fill-opacity="1"><g transform="translate(262.22997, 240.809485)"><g><path d="M 5.109375 -9.125 L 5.109375 0 L 3.703125 0 L 3.703125 -9.125 L 0.203125 -9.125 L 0.203125 -10.359375 L 8.625 -10.359375 L 8.625 -9.125 Z M 5.109375 -9.125 "/></g></g></g><g fill="#e2e2b6" fill-opacity="1"><g transform="translate(274.706306, 240.809485)"><g><path d="M 1.3125 0 L 1.3125 -10.359375 L 2.71875 -10.359375 L 2.71875 0 Z M 1.3125 0 "/></g></g></g><g fill="#e2e2b6" fill-opacity="1"><g transform="translate(282.374969, 240.809485)"><g><path d="M 5.625 0.28125 C 4.550781 0.28125 3.628906 0.0351562 2.859375 -0.453125 C 2.097656 -0.953125 1.523438 -1.613281 1.140625 -2.4375 C 0.753906 -3.269531 0.5625 -4.1875 0.5625 -5.1875 C 0.5625 -6.1875 0.753906 -7.097656 1.140625 -7.921875 C 1.523438 -8.753906 2.097656 -9.414062 2.859375 -9.90625 C 3.628906 -10.394531 4.546875 -10.640625 5.609375 -10.640625 C 6.710938 -10.640625 7.644531 -10.382812 8.40625 -9.875 C 9.164062 -9.363281 9.734375 -8.691406 10.109375 -7.859375 C 10.484375 -7.023438 10.671875 -6.132812 10.671875 -5.1875 C 10.671875 -4.195312 10.472656 -3.285156 10.078125 -2.453125 C 9.691406 -1.617188 9.117188 -0.953125 8.359375 -0.453125 C 7.597656 0.0351562 6.6875 0.28125 5.625 0.28125 Z M 9.21875 -5.1875 C 9.21875 -6.007812 9.066406 -6.738281 8.765625 -7.375 C 8.460938 -8.019531 8.035156 -8.519531 7.484375 -8.875 C 6.941406 -9.226562 6.316406 -9.40625 5.609375 -9.40625 C 4.898438 -9.40625 4.273438 -9.222656 3.734375 -8.859375 C 3.191406 -8.503906 2.765625 -8.007812 2.453125 -7.375 C 2.148438 -6.738281 2 -6.007812 2 -5.1875 C 2 -4.351562 2.148438 -3.613281 2.453125 -2.96875 C 2.753906 -2.332031 3.175781 -1.835938 3.71875 -1.484375 C 4.269531 -1.140625 4.898438 -0.96875 5.609375 -0.96875 C 6.328125 -0.96875 6.957031 -1.144531 7.5 -1.5 C 8.050781 -1.851562 8.472656 -2.347656 8.765625 -2.984375 C 9.066406 -3.617188 9.21875 -4.351562 9.21875 -5.1875 Z M 9.21875 -5.1875 "/></g></g></g><g fill="#e2e2b6" fill-opacity="1"><g transform="translate(297.262358, 240.809485)"><g><path d="M 7.96875 -2 L 7.96875 -10.359375 L 9.328125 -10.359375 L 9.328125 0 L 7.75 0 L 2.484375 -8.375 L 2.453125 -8.375 L 2.453125 0 L 1.09375 0 L 1.09375 -10.359375 L 2.75 -10.359375 L 7.9375 -2 Z M 7.96875 -2 "/></g></g></g><g fill="#e2e2b6" fill-opacity="1"><g transform="translate(311.341246, 240.809485)"><g><path d="M 8.65625 -7.328125 L 7.34375 -7.328125 C 7.320312 -7.992188 7.082031 -8.507812 6.625 -8.875 C 6.164062 -9.25 5.550781 -9.4375 4.78125 -9.4375 C 4.03125 -9.4375 3.445312 -9.28125 3.03125 -8.96875 C 2.613281 -8.65625 2.40625 -8.207031 2.40625 -7.625 C 2.40625 -6.925781 2.816406 -6.488281 3.640625 -6.3125 L 6.546875 -5.640625 C 8.148438 -5.273438 8.953125 -4.335938 8.953125 -2.828125 C 8.953125 -1.804688 8.570312 -1.03125 7.8125 -0.5 C 7.050781 0.0195312 6.070312 0.28125 4.875 0.28125 C 3.53125 0.28125 2.5 -0.0234375 1.78125 -0.640625 C 1.0625 -1.253906 0.703125 -2.15625 0.703125 -3.34375 L 2.015625 -3.34375 L 2.015625 -3.328125 C 2.015625 -2.566406 2.269531 -1.972656 2.78125 -1.546875 C 3.300781 -1.128906 4 -0.921875 4.875 -0.921875 C 5.644531 -0.921875 6.289062 -1.054688 6.8125 -1.328125 C 7.332031 -1.609375 7.59375 -2.0625 7.59375 -2.6875 C 7.59375 -3.09375 7.503906 -3.40625 7.328125 -3.625 C 7.148438 -3.851562 6.882812 -4.03125 6.53125 -4.15625 C 6.1875 -4.289062 5.660156 -4.441406 4.953125 -4.609375 L 3.203125 -5.015625 C 2.472656 -5.171875 1.929688 -5.460938 1.578125 -5.890625 C 1.222656 -6.328125 1.046875 -6.84375 1.046875 -7.4375 C 1.046875 -8.070312 1.1875 -8.628906 1.46875 -9.109375 C 1.757812 -9.585938 2.171875 -9.960938 2.703125 -10.234375 C 3.242188 -10.503906 3.882812 -10.640625 4.625 -10.640625 C 7.226562 -10.640625 8.570312 -9.535156 8.65625 -7.328125 Z M 8.65625 -7.328125 "/></g></g></g></svg>