<svg xmlns="http://www.w3.org/2000/svg" xmlns:xlink="http://www.w3.org/1999/xlink" width="401" zoomAndPan="magnify" viewBox="0 0 300.75 143.999998" height="192" preserveAspectRatio="xMidYMid meet" version="1.0"><defs><g/><clipPath id="3fc6803f25"><path d="M 24 35.820312 L 83.179688 35.820312 L 83.179688 116 L 24 116 Z M 24 35.820312 " clip-rule="nonzero"/></clipPath><clipPath id="bacb2a78cc"><path d="M 0 35.820312 L 38 35.820312 L 38 56 L 0 56 Z M 0 35.820312 " clip-rule="nonzero"/></clipPath><clipPath id="a64c9b557a"><path d="M 0 35.820312 L 38 35.820312 L 38 56 L 0 56 Z M 0 35.820312 " clip-rule="nonzero"/></clipPath></defs><g clip-path="url(#3fc6803f25)"><path fill="#e8e5de" d="M 61.683594 91.980469 L 77.480469 115.664062 L 53.242188 115.664062 L 38.03125 92.851562 L 24.726562 72.890625 C 24.726562 72.890625 54.65625 72.890625 54.667969 72.890625 C 59.324219 72.890625 63.222656 68.984375 63.222656 64.335938 C 63.222656 59.617188 59.390625 55.78125 54.667969 55.78125 L 47.46875 55.78125 L 34.167969 35.820312 L 54.667969 35.820312 C 70.425781 35.820312 83.183594 48.582031 83.183594 64.335938 C 83.183594 72.207031 79.992188 79.335938 74.828125 84.496094 C 71.28125 88.042969 66.542969 90.742188 61.683594 91.980469 " fill-opacity="1" fill-rule="evenodd"/></g><g clip-path="url(#bacb2a78cc)"><path fill="#e2e2b6" d="M 37.554688 55.78125 L 13.316406 55.78125 L 0.0078125 35.820312 L 24.25 35.820312 Z M 37.554688 55.78125 " fill-opacity="1" fill-rule="evenodd"/></g><path fill="#e8e5de" d="M 54.347656 83.503906 L 45.121094 83.503906 L 51.332031 92.839844 L 66.542969 115.664062 L 53.238281 115.664062 L 43.65625 101.269531 L 24.738281 72.878906 C 24.738281 72.878906 54.65625 72.878906 54.679688 72.878906 C 59.3125 72.878906 63.21875 68.976562 63.21875 64.339844 C 63.21875 59.617188 59.378906 55.78125 54.679688 55.78125 L 47.472656 55.78125 L 40.820312 45.800781 L 54.347656 45.800781 C 64.769531 45.800781 73.199219 54.25 73.199219 64.652344 C 73.199219 75.054688 64.769531 83.503906 54.347656 83.503906 " fill-opacity="1" fill-rule="evenodd"/><g clip-path="url(#a64c9b557a)"><path fill="#00b7ff" d="M 0.0078125 35.820312 L 13.316406 55.78125 L 37.554688 55.78125 L 30.902344 45.800781 L 20.804688 45.800781 C 13.039062 45.800781 5.660156 42.40625 0.605469 36.511719 Z M 0.0078125 35.820312 " fill-opacity="1" fill-rule="evenodd"/></g><g fill="#e8e5de" fill-opacity="1"><g transform="translate(86.492345, 90.172588)"><g><path d="M 17.140625 0 L 17.140625 -39.53125 L 0.921875 -39.53125 L 0.921875 -50.765625 L 47.0625 -50.765625 L 47.0625 -39.53125 L 30.859375 -39.53125 L 30.859375 0 Z M 17.140625 0 "/></g></g></g><g fill="#e8e5de" fill-opacity="1"><g transform="translate(141.301022, 90.172588)"><g><path d="M 30.578125 1.0625 C 24.984375 1.0625 20.050781 -0.015625 15.78125 -2.171875 C 11.519531 -4.328125 8.203125 -7.382812 5.828125 -11.34375 C 3.460938 -15.300781 2.28125 -19.976562 2.28125 -25.375 C 2.28125 -30.78125 3.460938 -35.460938 5.828125 -39.421875 C 8.203125 -43.378906 11.519531 -46.4375 15.78125 -48.59375 C 20.050781 -50.75 24.984375 -51.828125 30.578125 -51.828125 C 36.210938 -51.828125 41.148438 -50.75 45.390625 -48.59375 C 49.628906 -46.4375 52.945312 -43.378906 55.34375 -39.421875 C 57.738281 -35.460938 58.9375 -30.78125 58.9375 -25.375 C 58.9375 -19.976562 57.738281 -15.300781 55.34375 -11.34375 C 52.945312 -7.382812 49.628906 -4.328125 45.390625 -2.171875 C 41.148438 -0.015625 36.210938 1.0625 30.578125 1.0625 Z M 30.578125 -10.171875 C 33.460938 -10.171875 35.992188 -10.804688 38.171875 -12.078125 C 40.359375 -13.359375 42.066406 -15.132812 43.296875 -17.40625 C 44.523438 -19.6875 45.140625 -22.34375 45.140625 -25.375 C 45.140625 -28.414062 44.523438 -31.070312 43.296875 -33.34375 C 42.066406 -35.613281 40.359375 -37.390625 38.171875 -38.671875 C 35.992188 -39.953125 33.460938 -40.59375 30.578125 -40.59375 C 27.734375 -40.59375 25.207031 -39.953125 23 -38.671875 C 20.789062 -37.390625 19.070312 -35.613281 17.84375 -33.34375 C 16.613281 -31.070312 16 -28.414062 16 -25.375 C 16 -22.34375 16.613281 -19.6875 17.84375 -17.40625 C 19.070312 -15.132812 20.789062 -13.359375 23 -12.078125 C 25.207031 -10.804688 27.734375 -10.171875 30.578125 -10.171875 Z M 30.578125 -10.171875 "/></g></g></g><g fill="#e8e5de" fill-opacity="1"><g transform="translate(209.332036, 90.172588)"><g><path d="M 3.984375 0 L 3.984375 -50.765625 L 24.390625 -50.765625 C 30.078125 -50.765625 35.050781 -49.71875 39.3125 -47.625 C 43.582031 -45.539062 46.910156 -42.601562 49.296875 -38.8125 C 51.691406 -35.019531 52.890625 -30.539062 52.890625 -25.375 C 52.890625 -20.257812 51.703125 -15.789062 49.328125 -11.96875 C 46.960938 -8.15625 43.644531 -5.207031 39.375 -3.125 C 35.113281 -1.039062 30.117188 0 24.390625 0 Z M 17.28125 -10.234375 L 24.390625 -10.234375 C 27.328125 -10.234375 29.90625 -10.847656 32.125 -12.078125 C 34.351562 -13.316406 36.082031 -15.070312 37.3125 -17.34375 C 38.550781 -19.625 39.171875 -22.300781 39.171875 -25.375 C 39.171875 -28.507812 38.550781 -31.203125 37.3125 -33.453125 C 36.082031 -35.703125 34.351562 -37.441406 32.125 -38.671875 C 29.90625 -39.910156 27.328125 -40.53125 24.390625 -40.53125 L 17.28125 -40.53125 Z M 17.28125 -10.234375 "/></g></g></g><g fill="#e2e2b6" fill-opacity="1"><g transform="translate(91.886285, 115.543555)"><g><path d="M 5.109375 -9.125 L 5.109375 0 L 3.703125 0 L 3.703125 -9.125 L 0.203125 -9.125 L 0.203125 -10.359375 L 8.625 -10.359375 L 8.625 -9.125 Z M 5.109375 -9.125 "/></g></g></g><g fill="#e2e2b6" fill-opacity="1"><g transform="translate(104.352259, 115.543555)"><g><path d="M 2.640625 -9.125 L 2.640625 -5.953125 L 8.3125 -5.953125 L 8.3125 -4.703125 L 2.640625 -4.703125 L 2.640625 -1.234375 L 8.890625 -1.234375 L 8.890625 0 L 1.234375 0 L 1.234375 -10.359375 L 8.796875 -10.359375 L 8.796875 -9.125 Z M 2.640625 -9.125 "/></g></g></g><g fill="#e2e2b6" fill-opacity="1"><g transform="translate(117.626053, 115.543555)"><g><path d="M 5.46875 -9.40625 C 4.800781 -9.40625 4.210938 -9.238281 3.703125 -8.90625 C 3.191406 -8.570312 2.789062 -8.09375 2.5 -7.46875 C 2.21875 -6.851562 2.078125 -6.125 2.078125 -5.28125 C 2.078125 -3.851562 2.367188 -2.773438 2.953125 -2.046875 C 3.535156 -1.328125 4.382812 -0.96875 5.5 -0.96875 C 6.25 -0.96875 6.894531 -1.21875 7.4375 -1.71875 C 7.976562 -2.226562 8.320312 -2.925781 8.46875 -3.8125 L 9.828125 -3.8125 C 9.710938 -2.96875 9.445312 -2.234375 9.03125 -1.609375 C 8.625 -0.992188 8.097656 -0.523438 7.453125 -0.203125 C 6.816406 0.117188 6.109375 0.28125 5.328125 0.28125 C 4.390625 0.28125 3.566406 0.0625 2.859375 -0.375 C 2.148438 -0.8125 1.601562 -1.441406 1.21875 -2.265625 C 0.832031 -3.097656 0.640625 -4.082031 0.640625 -5.21875 C 0.640625 -6.300781 0.832031 -7.25 1.21875 -8.0625 C 1.613281 -8.882812 2.175781 -9.519531 2.90625 -9.96875 C 3.644531 -10.414062 4.5 -10.640625 5.46875 -10.640625 C 6.226562 -10.640625 6.914062 -10.5 7.53125 -10.21875 C 8.144531 -9.9375 8.640625 -9.539062 9.015625 -9.03125 C 9.398438 -8.519531 9.640625 -7.925781 9.734375 -7.25 L 8.375 -7.25 C 8.226562 -7.9375 7.90625 -8.46875 7.40625 -8.84375 C 6.90625 -9.21875 6.257812 -9.40625 5.46875 -9.40625 Z M 5.46875 -9.40625 "/></g></g></g><g fill="#e2e2b6" fill-opacity="1"><g transform="translate(131.693247, 115.543555)"><g><path d="M 7.921875 -6.078125 L 7.921875 -10.359375 L 9.328125 -10.359375 L 9.328125 0 L 7.921875 0 L 7.921875 -4.84375 L 2.515625 -4.84375 L 2.515625 0 L 1.109375 0 L 1.109375 -10.359375 L 2.515625 -10.359375 L 2.515625 -6.078125 Z M 7.921875 -6.078125 "/></g></g></g><g fill="#e2e2b6" fill-opacity="1"><g transform="translate(145.760441, 115.543555)"><g/></g></g><g fill="#e2e2b6" fill-opacity="1"><g transform="translate(153.422735, 115.543555)"><g><path d="M 8.65625 -7.328125 L 7.34375 -7.328125 C 7.320312 -7.992188 7.082031 -8.507812 6.625 -8.875 C 6.164062 -9.25 5.550781 -9.4375 4.78125 -9.4375 C 4.03125 -9.4375 3.445312 -9.28125 3.03125 -8.96875 C 2.613281 -8.65625 2.40625 -8.207031 2.40625 -7.625 C 2.40625 -6.925781 2.816406 -6.488281 3.640625 -6.3125 L 6.546875 -5.640625 C 8.148438 -5.273438 8.953125 -4.335938 8.953125 -2.828125 C 8.953125 -1.804688 8.570312 -1.03125 7.8125 -0.5 C 7.050781 0.0195312 6.070312 0.28125 4.875 0.28125 C 3.53125 0.28125 2.5 -0.0234375 1.78125 -0.640625 C 1.0625 -1.253906 0.703125 -2.15625 0.703125 -3.34375 L 2.015625 -3.34375 L 2.015625 -3.328125 C 2.015625 -2.566406 2.269531 -1.972656 2.78125 -1.546875 C 3.300781 -1.128906 4 -0.921875 4.875 -0.921875 C 5.644531 -0.921875 6.289062 -1.054688 6.8125 -1.328125 C 7.332031 -1.609375 7.59375 -2.0625 7.59375 -2.6875 C 7.59375 -3.09375 7.503906 -3.40625 7.328125 -3.625 C 7.148438 -3.851562 6.882812 -4.03125 6.53125 -4.15625 C 6.1875 -4.289062 5.660156 -4.441406 4.953125 -4.609375 L 3.203125 -5.015625 C 2.472656 -5.171875 1.929688 -5.460938 1.578125 -5.890625 C 1.222656 -6.328125 1.046875 -6.84375 1.046875 -7.4375 C 1.046875 -8.070312 1.1875 -8.628906 1.46875 -9.109375 C 1.757812 -9.585938 2.171875 -9.960938 2.703125 -10.234375 C 3.242188 -10.503906 3.882812 -10.640625 4.625 -10.640625 C 7.226562 -10.640625 8.570312 -9.535156 8.65625 -7.328125 Z M 8.65625 -7.328125 "/></g></g></g><g fill="#e2e2b6" fill-opacity="1"><g transform="translate(166.696528, 115.543555)"><g><path d="M 5.625 0.28125 C 4.550781 0.28125 3.628906 0.0351562 2.859375 -0.453125 C 2.097656 -0.953125 1.523438 -1.613281 1.140625 -2.4375 C 0.753906 -3.269531 0.5625 -4.1875 0.5625 -5.1875 C 0.5625 -6.1875 0.753906 -7.097656 1.140625 -7.921875 C 1.523438 -8.753906 2.097656 -9.414062 2.859375 -9.90625 C 3.628906 -10.394531 4.546875 -10.640625 5.609375 -10.640625 C 6.710938 -10.640625 7.644531 -10.382812 8.40625 -9.875 C 9.164062 -9.363281 9.734375 -8.691406 10.109375 -7.859375 C 10.484375 -7.023438 10.671875 -6.132812 10.671875 -5.1875 C 10.671875 -4.195312 10.472656 -3.285156 10.078125 -2.453125 C 9.691406 -1.617188 9.117188 -0.953125 8.359375 -0.453125 C 7.597656 0.0351562 6.6875 0.28125 5.625 0.28125 Z M 9.21875 -5.1875 C 9.21875 -6.007812 9.066406 -6.738281 8.765625 -7.375 C 8.460938 -8.019531 8.035156 -8.519531 7.484375 -8.875 C 6.941406 -9.226562 6.316406 -9.40625 5.609375 -9.40625 C 4.898438 -9.40625 4.273438 -9.222656 3.734375 -8.859375 C 3.191406 -8.503906 2.765625 -8.007812 2.453125 -7.375 C 2.148438 -6.738281 2 -6.007812 2 -5.1875 C 2 -4.351562 2.148438 -3.613281 2.453125 -2.96875 C 2.753906 -2.332031 3.175781 -1.835938 3.71875 -1.484375 C 4.269531 -1.140625 4.898438 -0.96875 5.609375 -0.96875 C 6.328125 -0.96875 6.957031 -1.144531 7.5 -1.5 C 8.050781 -1.851562 8.472656 -2.347656 8.765625 -2.984375 C 9.066406 -3.617188 9.21875 -4.351562 9.21875 -5.1875 Z M 9.21875 -5.1875 "/></g></g></g><g fill="#e2e2b6" fill-opacity="1"><g transform="translate(181.571553, 115.543555)"><g><path d="M 7.75 -1.234375 L 7.75 0 L 1.09375 0 L 1.09375 -10.359375 L 2.5 -10.359375 L 2.5 -1.234375 Z M 7.75 -1.234375 "/></g></g></g><g fill="#e2e2b6" fill-opacity="1"><g transform="translate(193.244128, 115.543555)"><g><path d="M 5.171875 -0.96875 C 6.023438 -0.96875 6.691406 -1.210938 7.171875 -1.703125 C 7.648438 -2.191406 7.890625 -2.875 7.890625 -3.75 L 7.890625 -10.359375 L 9.296875 -10.359375 L 9.296875 -3.671875 C 9.296875 -2.898438 9.132812 -2.21875 8.8125 -1.625 C 8.5 -1.03125 8.03125 -0.5625 7.40625 -0.21875 C 6.78125 0.113281 6.019531 0.28125 5.125 0.28125 C 4.289062 0.28125 3.570312 0.125 2.96875 -0.1875 C 2.375 -0.507812 1.921875 -0.953125 1.609375 -1.515625 C 1.296875 -2.085938 1.140625 -2.738281 1.140625 -3.46875 L 1.140625 -10.359375 L 2.546875 -10.359375 L 2.546875 -3.78125 C 2.546875 -2.894531 2.769531 -2.203125 3.21875 -1.703125 C 3.664062 -1.210938 4.316406 -0.96875 5.171875 -0.96875 Z M 5.171875 -0.96875 "/></g></g></g><g fill="#e2e2b6" fill-opacity="1"><g transform="translate(207.311322, 115.543555)"><g><path d="M 5.109375 -9.125 L 5.109375 0 L 3.703125 0 L 3.703125 -9.125 L 0.203125 -9.125 L 0.203125 -10.359375 L 8.625 -10.359375 L 8.625 -9.125 Z M 5.109375 -9.125 "/></g></g></g><g fill="#e2e2b6" fill-opacity="1"><g transform="translate(219.777296, 115.543555)"><g><path d="M 1.3125 0 L 1.3125 -10.359375 L 2.71875 -10.359375 L 2.71875 0 Z M 1.3125 0 "/></g></g></g><g fill="#e2e2b6" fill-opacity="1"><g transform="translate(227.43959, 115.543555)"><g><path d="M 5.625 0.28125 C 4.550781 0.28125 3.628906 0.0351562 2.859375 -0.453125 C 2.097656 -0.953125 1.523438 -1.613281 1.140625 -2.4375 C 0.753906 -3.269531 0.5625 -4.1875 0.5625 -5.1875 C 0.5625 -6.1875 0.753906 -7.097656 1.140625 -7.921875 C 1.523438 -8.753906 2.097656 -9.414062 2.859375 -9.90625 C 3.628906 -10.394531 4.546875 -10.640625 5.609375 -10.640625 C 6.710938 -10.640625 7.644531 -10.382812 8.40625 -9.875 C 9.164062 -9.363281 9.734375 -8.691406 10.109375 -7.859375 C 10.484375 -7.023438 10.671875 -6.132812 10.671875 -5.1875 C 10.671875 -4.195312 10.472656 -3.285156 10.078125 -2.453125 C 9.691406 -1.617188 9.117188 -0.953125 8.359375 -0.453125 C 7.597656 0.0351562 6.6875 0.28125 5.625 0.28125 Z M 9.21875 -5.1875 C 9.21875 -6.007812 9.066406 -6.738281 8.765625 -7.375 C 8.460938 -8.019531 8.035156 -8.519531 7.484375 -8.875 C 6.941406 -9.226562 6.316406 -9.40625 5.609375 -9.40625 C 4.898438 -9.40625 4.273438 -9.222656 3.734375 -8.859375 C 3.191406 -8.503906 2.765625 -8.007812 2.453125 -7.375 C 2.148438 -6.738281 2 -6.007812 2 -5.1875 C 2 -4.351562 2.148438 -3.613281 2.453125 -2.96875 C 2.753906 -2.332031 3.175781 -1.835938 3.71875 -1.484375 C 4.269531 -1.140625 4.898438 -0.96875 5.609375 -0.96875 C 6.328125 -0.96875 6.957031 -1.144531 7.5 -1.5 C 8.050781 -1.851562 8.472656 -2.347656 8.765625 -2.984375 C 9.066406 -3.617188 9.21875 -4.351562 9.21875 -5.1875 Z M 9.21875 -5.1875 "/></g></g></g><g fill="#e2e2b6" fill-opacity="1"><g transform="translate(242.314615, 115.543555)"><g><path d="M 7.96875 -2 L 7.96875 -10.359375 L 9.328125 -10.359375 L 9.328125 0 L 7.75 0 L 2.484375 -8.375 L 2.453125 -8.375 L 2.453125 0 L 1.09375 0 L 1.09375 -10.359375 L 2.75 -10.359375 L 7.9375 -2 Z M 7.96875 -2 "/></g></g></g><g fill="#e2e2b6" fill-opacity="1"><g transform="translate(256.381809, 115.543555)"><g><path d="M 8.65625 -7.328125 L 7.34375 -7.328125 C 7.320312 -7.992188 7.082031 -8.507812 6.625 -8.875 C 6.164062 -9.25 5.550781 -9.4375 4.78125 -9.4375 C 4.03125 -9.4375 3.445312 -9.28125 3.03125 -8.96875 C 2.613281 -8.65625 2.40625 -8.207031 2.40625 -7.625 C 2.40625 -6.925781 2.816406 -6.488281 3.640625 -6.3125 L 6.546875 -5.640625 C 8.148438 -5.273438 8.953125 -4.335938 8.953125 -2.828125 C 8.953125 -1.804688 8.570312 -1.03125 7.8125 -0.5 C 7.050781 0.0195312 6.070312 0.28125 4.875 0.28125 C 3.53125 0.28125 2.5 -0.0234375 1.78125 -0.640625 C 1.0625 -1.253906 0.703125 -2.15625 0.703125 -3.34375 L 2.015625 -3.34375 L 2.015625 -3.328125 C 2.015625 -2.566406 2.269531 -1.972656 2.78125 -1.546875 C 3.300781 -1.128906 4 -0.921875 4.875 -0.921875 C 5.644531 -0.921875 6.289062 -1.054688 6.8125 -1.328125 C 7.332031 -1.609375 7.59375 -2.0625 7.59375 -2.6875 C 7.59375 -3.09375 7.503906 -3.40625 7.328125 -3.625 C 7.148438 -3.851562 6.882812 -4.03125 6.53125 -4.15625 C 6.1875 -4.289062 5.660156 -4.441406 4.953125 -4.609375 L 3.203125 -5.015625 C 2.472656 -5.171875 1.929688 -5.460938 1.578125 -5.890625 C 1.222656 -6.328125 1.046875 -6.84375 1.046875 -7.4375 C 1.046875 -8.070312 1.1875 -8.628906 1.46875 -9.109375 C 1.757812 -9.585938 2.171875 -9.960938 2.703125 -10.234375 C 3.242188 -10.503906 3.882812 -10.640625 4.625 -10.640625 C 7.226562 -10.640625 8.570312 -9.535156 8.65625 -7.328125 Z M 8.65625 -7.328125 "/></g></g></g></svg>